HIERARCHY
ROOT Hips
{
	OFFSET -0.001795 -0.223333 0.028219
	CHANNELS 6 Xposition Yposition Zposition Zrotation Yrotation Xrotation 
	JOINT LeftUpLeg
	{
		OFFSET 0.069520 -0.091406 -0.006815
		CHANNELS 3 Zrotation Yrotation Xrotation
		JOINT LeftLeg
		{
			OFFSET 0.034277 -0.375199 -0.004496
			CHANNELS 3 Zrotation Yrotation Xrotation
			JOINT LeftFoot
			{
				OFFSET -0.013596 -0.397961 -0.043693
				CHANNELS 3 Zrotation Yrotation Xrotation
				JOINT LeftToe
				{
					OFFSET 0.026358 -0.055791 0.119288
					CHANNELS 3 Zrotation Yrotation Xrotation
					End Site
					{
						OFFSET 0.000000 0.000000 0.000000
					}
				}
			}
		}
	}
	JOINT RightUpLeg
	{
		OFFSET -0.067670 -0.090522 -0.004320
		CHANNELS 3 Zrotation Yrotation Xrotation
		JOINT RightLeg
		{
			OFFSET -0.038290 -0.382569 -0.008850
			CHANNELS 3 Zrotation Yrotation Xrotation
			JOINT RightFoot
			{
				OFFSET 0.015774 -0.398415 -0.042312
				CHANNELS 3 Zrotation Yrotation Xrotation
				JOINT RightToe
				{
					OFFSET -0.025372 -0.048144 0.123348
					CHANNELS 3 Zrotation Yrotation Xrotation
					End Site
					{
						OFFSET 0.000000 0.000000 0.000000
					}
				}
			}
		}
	}
	JOINT Spine
	{
		OFFSET -0.002533 0.108963 -0.026696
		CHANNELS 3 Zrotation Yrotation Xrotation
		JOINT Spine1
		{
			OFFSET 0.005487 0.135180 0.001092
			CHANNELS 3 Zrotation Yrotation Xrotation
			JOINT Spine2
			{
				OFFSET 0.001457 0.052922 0.025425
				CHANNELS 3 Zrotation Yrotation Xrotation
				JOINT Neck
				{
					OFFSET -0.002778 0.213870 -0.042857
					CHANNELS 3 Zrotation Yrotation Xrotation
					JOINT Head
					{
						OFFSET 0.005152 0.064970 0.051349
						CHANNELS 3 Zrotation Yrotation Xrotation
						End Site
						{
							OFFSET 0.000000 0.000000 0.000000
						}
					}
				}
				JOINT LeftShoulder
				{
					OFFSET 0.078845 0.121749 -0.034090
					CHANNELS 3 Zrotation Yrotation Xrotation
					JOINT LeftArm
					{
						OFFSET 0.090977 0.030469 -0.008868
						CHANNELS 3 Zrotation Yrotation Xrotation
						JOINT LeftForeArm
						{
							OFFSET 0.259612 -0.012772 -0.027456
							CHANNELS 3 Zrotation Yrotation Xrotation
							JOINT LeftHand
							{
								OFFSET 0.249234 0.008986 -0.001171
								CHANNELS 3 Zrotation Yrotation Xrotation
								End Site
								{
									OFFSET 0.000000 0.000000 0.000000
								}
							}
						}
					}
				}
				JOINT RightShoulder
				{
					OFFSET -0.081759 0.118833 -0.038615
					CHANNELS 3 Zrotation Yrotation Xrotation
					JOINT RightArm
					{
						OFFSET -0.096012 0.032551 -0.009143
						CHANNELS 3 Zrotation Yrotation Xrotation
						JOINT RightForeArm
						{
							OFFSET -0.253742 -0.013329 -0.021401
							CHANNELS 3 Zrotation Yrotation Xrotation
							JOINT RightHand
							{
								OFFSET -0.255298 0.007772 -0.005559
								CHANNELS 3 Zrotation Yrotation Xrotation
								End Site
								{
									OFFSET 0.000000 0.000000 0.000000
								}
							}
						}
					}
				}
			}
		}
	}
}
MOTION
Frames: 17
Frame Time: 0.050000
-0.092570 0.714304 0.405797 -14.962789 65.901510 -13.533059 50.536785 -9.141348 -42.705469 -36.546158 2.611728 35.744418 29.518647 44.644175 27.807423 0.000000 0.000000 0.000000 -6.463079 -16.437237 -47.322926 -21.102181 -5.743571 83.682076 -0.816587 5.631071 -15.162299 0.000000 0.000000 0.000000 -38.211934 -6.278590 59.646665 4.733994 0.362207 -21.385834 16.346236 34.507402 31.322761 -2.311123 9.380826 -44.530767 0.000000 0.000000 0.000000 -25.145927 -30.249395 -4.912918 -29.288481 -12.777348 3.618449 -32.940951 -57.698373 12.996020 0.000000 0.000000 0.000000 1.123802 28.078151 13.738379 30.258770 44.073532 10.465181 38.687939 82.349964 45.962633 0.000000 0.000000 0.000000 
-0.093460 0.714207 0.404902 -14.364381 65.343032 -13.385676 49.694147 -8.907706 -42.679851 -35.443710 2.466615 36.482827 29.029043 44.054465 28.092185 0.000000 0.000000 0.000000 -7.584173 -16.338777 -46.006790 -20.536105 -6.397101 83.629697 -0.766523 6.097111 -15.562977 0.000000 0.000000 0.000000 -37.114170 -6.398563 59.651523 4.425611 0.464507 -21.089952 15.479971 33.557475 30.801470 -1.765565 9.168110 -44.389580 0.000000 0.000000 0.000000 -26.322786 -30.892841 -4.567021 -27.952717 -13.437133 3.753057 -29.678998 -56.747867 11.619754 0.000000 0.000000 0.000000 0.428986 28.387529 13.288937 30.668671 44.220575 10.772970 38.786026 81.923889 45.668097 0.000000 0.000000 0.000000 
-0.094136 0.713864 0.403866 -13.494424 64.299947 -12.893302 49.422617 -8.623528 -42.148347 -34.440809 2.465917 36.968101 28.277338 43.156567 28.489989 0.000000 0.000000 0.000000 -8.056195 -16.035965 -45.540949 -20.224624 -6.344328 83.869376 -0.762300 6.206813 -15.484188 0.000000 0.000000 0.000000 -36.588948 -6.164289 59.253215 4.580832 0.376888 -20.352199 14.614748 33.432898 30.115187 -1.648514 8.997018 -44.440150 0.000000 0.000000 0.000000 -26.380146 -31.423559 -4.061639 -27.353970 -14.401195 3.885347 -27.381938 -56.656446 10.497955 0.000000 0.000000 0.000000 -0.568366 28.544522 12.724708 31.867752 44.650389 11.652639 36.756219 81.685050 43.726550 0.000000 0.000000 0.000000 
-0.094733 0.713596 0.402471 -13.395156 63.701378 -12.882128 49.634077 -8.476982 -42.172736 -33.951875 2.532110 37.212840 27.765007 42.824808 28.355597 0.000000 0.000000 0.000000 -8.310558 -15.916144 -45.356498 -19.642190 -6.681038 83.930732 -0.778222 6.392957 -15.733883 0.000000 0.000000 0.000000 -35.424931 -6.304811 59.254168 4.342776 0.471135 -20.248337 13.763478 32.050060 29.643958 -1.222713 8.870091 -43.992224 0.000000 0.000000 0.000000 -26.765707 -31.482270 -3.534826 -26.555007 -14.926033 3.846044 -25.962965 -56.921869 10.044511 0.000000 0.000000 0.000000 -0.743934 29.715611 12.948038 31.716361 44.759824 11.517835 35.154047 80.942680 41.365773 0.000000 0.000000 0.000000 
-0.094725 0.713340 0.400433 -13.125429 62.723980 -12.586602 50.186227 -8.283448 -41.528155 -33.746721 2.687254 36.594917 27.551895 42.453389 28.696897 0.000000 0.000000 0.000000 -8.541400 -15.641883 -45.219377 -19.249447 -6.574343 83.883049 -0.623964 7.148985 -15.963726 0.000000 0.000000 0.000000 -35.521098 -5.959600 59.274247 4.712981 0.298450 -19.778047 13.398747 32.479604 29.302799 -0.879296 8.653604 -44.362600 0.000000 0.000000 0.000000 -26.061699 -32.241541 -2.722651 -26.347986 -15.403642 3.843095 -24.586040 -57.820420 9.263118 0.000000 0.000000 0.000000 -1.173839 29.811238 12.748615 31.987748 45.043522 11.863683 33.222310 80.785159 39.526979 0.000000 0.000000 0.000000 
-0.093242 0.714897 0.397125 -12.596076 61.610248 -11.599928 50.986528 -8.058891 -41.301198 -34.308865 3.054907 35.582946 27.110196 42.108452 28.610006 0.000000 0.000000 0.000000 -8.756631 -15.553154 -45.493884 -18.010059 -6.972479 83.229699 -0.559576 7.166093 -15.836028 0.000000 0.000000 0.000000 -34.876550 -5.711164 58.842076 4.390889 0.399872 -19.787707 12.837000 30.763132 28.802032 -0.820027 8.649660 -43.460181 0.000000 0.000000 0.000000 -25.892367 -31.608844 -2.158199 -26.333411 -16.312120 3.763363 -23.618888 -57.572124 8.842424 0.000000 0.000000 0.000000 -0.105124 30.433437 13.485620 31.383090 46.188632 11.642176 31.550425 79.421666 36.582953 0.000000 0.000000 0.000000 
-0.089273 0.717759 0.392055 -12.132275 60.047175 -10.809289 51.079590 -7.687931 -40.613326 -33.897554 3.192863 34.912387 26.357844 41.507359 28.035194 0.000000 0.000000 0.000000 -9.113601 -15.350300 -45.675963 -16.746283 -7.092573 82.163415 -0.438905 6.897345 -15.157911 0.000000 0.000000 0.000000 -35.005409 -5.123797 58.760411 4.536614 0.325090 -19.652330 12.762735 30.748998 28.291368 -0.910127 8.691537 -43.186169 0.000000 0.000000 0.000000 -25.088337 -31.937586 -1.173665 -26.727500 -16.621637 3.626216 -24.510220 -58.530537 9.348240 0.000000 0.000000 0.000000 2.062374 30.790909 14.954701 30.340768 46.610413 10.800157 28.924734 77.538258 32.598897 0.000000 0.000000 0.000000 
-0.082404 0.721072 0.384855 -11.967282 58.920247 -9.972843 51.394800 -7.436298 -40.282382 -34.470823 3.446053 33.865361 25.591471 41.113707 26.876887 0.000000 0.000000 0.000000 -10.105706 -15.419537 -45.205915 -14.410368 -8.413650 79.989124 -0.670242 5.530618 -14.893685 0.000000 0.000000 0.000000 -34.624627 -4.804306 58.328232 5.027326 0.146475 -19.325097 11.896609 29.713024 27.527298 -0.822200 8.683486 -41.762169 0.000000 0.000000 0.000000 -25.966029 -31.754837 -0.866921 -26.124317 -16.427912 3.424987 -24.826980 -58.248355 10.027293 0.000000 0.000000 0.000000 4.834007 31.020202 16.713783 29.402319 47.172185 9.872728 26.815601 75.599559 29.215660 0.000000 0.000000 0.000000 
-0.072836 0.724810 0.375489 -11.311860 57.044963 -8.758626 51.117367 -6.922211 -39.971670 -35.028436 3.931485 34.210151 24.941628 40.479888 26.669030 0.000000 0.000000 0.000000 -10.383592 -15.220678 -45.708669 -13.167246 -8.153005 78.369641 -0.880528 3.915657 -13.704635 0.000000 0.000000 0.000000 -34.447441 -4.150211 57.676352 5.053587 0.112821 -18.944378 11.550405 29.122433 26.860660 -1.456015 8.891908 -41.482476 0.000000 0.000000 0.000000 -25.449720 -31.830570 0.008087 -26.594701 -16.624383 3.241290 -25.142785 -59.271637 10.446406 0.000000 0.000000 0.000000 7.741918 30.961637 18.443267 28.146270 47.142737 8.587107 22.995531 73.360084 24.588764 0.000000 0.000000 0.000000 
-0.061100 0.727371 0.364301 -10.773428 55.353412 -7.503054 51.109277 -6.460817 -39.669992 -36.158794 4.507791 34.049612 24.513603 40.244023 25.637282 0.000000 0.000000 0.000000 -11.261713 -15.393579 -45.998137 -11.289220 -8.417721 76.401869 -1.021100 2.606847 -12.427831 0.000000 0.000000 0.000000 -33.290721 -3.817740 56.604353 5.286892 -0.021482 -18.167840 10.100905 27.907201 25.408666 -1.746963 8.882973 -39.953452 0.000000 0.000000 0.000000 -26.824240 -32.328996 0.614525 -26.441497 -16.395014 3.174936 -26.841802 -58.612281 11.827565 0.000000 0.000000 0.000000 10.996902 30.585007 20.288961 27.921647 45.926550 7.260540 18.348728 71.647464 20.095974 0.000000 0.000000 0.000000 
-0.048004 0.730390 0.352031 -10.129153 53.438468 -6.468972 50.790583 -5.879039 -39.690902 -37.519008 5.393087 35.294396 24.482678 40.338357 24.710296 0.000000 0.000000 0.000000 -11.645016 -15.361336 -46.718330 -10.522477 -7.677416 75.098334 -0.883047 1.821946 -10.076407 0.000000 0.000000 0.000000 -32.766907 -3.292738 55.841520 5.849548 -0.231583 -18.130874 8.773896 26.916665 24.806429 -2.128552 8.919593 -39.284765 0.000000 0.000000 0.000000 -26.516098 -32.441368 1.352072 -27.197235 -17.645838 3.299368 -26.702005 -58.214303 11.659649 0.000000 0.000000 0.000000 12.512079 30.491575 21.050770 28.188012 44.957282 6.643639 11.639592 70.671009 14.772401 0.000000 0.000000 0.000000 
-0.034211 0.731820 0.340213 -9.562556 52.598299 -5.360247 50.454919 -5.523890 -40.154706 -38.967773 6.017752 35.588805 24.952293 41.192173 23.431252 0.000000 0.000000 0.000000 -12.945669 -16.243362 -47.165086 -9.387663 -7.509755 73.756777 -0.732372 0.966796 -7.172873 0.000000 0.000000 0.000000 -31.607971 -3.271781 55.339111 5.965358 -0.318160 -17.613561 7.419939 25.300057 23.817518 -2.203552 8.688188 -38.908407 0.000000 0.000000 0.000000 -26.645992 -32.663533 2.161763 -27.305651 -19.160916 3.450345 -27.477446 -57.169409 12.075279 0.000000 0.000000 0.000000 13.633599 29.871013 21.254093 30.087838 43.701529 6.573054 4.948867 69.357280 9.810590 0.000000 0.000000 0.000000 
-0.020366 0.733388 0.329700 -9.127262 51.878894 -4.484893 50.310601 -5.274406 -40.349213 -40.384259 6.547336 35.487740 26.220594 42.360246 23.930519 0.000000 0.000000 0.000000 -13.424883 -16.591154 -47.669494 -8.898804 -7.104022 72.644031 -0.851238 -0.124501 -5.158130 0.000000 0.000000 0.000000 -30.970969 -3.130382 54.409028 6.600363 -0.579792 -17.235790 6.279499 23.943150 23.015511 -2.817438 8.741758 -38.865920 0.000000 0.000000 0.000000 -26.261576 -32.255035 2.454042 -27.708628 -21.030612 3.685099 -28.456314 -56.273197 12.427744 0.000000 0.000000 0.000000 16.109502 29.078873 22.254944 30.263297 42.191629 5.611174 1.401250 68.341379 7.063732 0.000000 0.000000 0.000000 
-0.006871 0.734649 0.320410 -8.855319 51.726170 -3.853510 49.922667 -5.177418 -40.487170 -41.405949 6.768446 35.235001 27.888748 44.231584 23.742469 0.000000 0.000000 0.000000 -14.829576 -17.193846 -46.953539 -7.564614 -7.727236 70.965610 -1.333377 -1.776098 -3.777319 0.000000 0.000000 0.000000 -29.981798 -3.287773 53.929003 6.622601 -0.557711 -17.549610 5.662669 22.270833 23.038551 -2.737626 8.558980 -38.759365 0.000000 0.000000 0.000000 -25.669265 -32.083556 3.004451 -27.867155 -22.869208 3.820135 -27.636584 -54.196615 11.619163 0.000000 0.000000 0.000000 17.404157 28.267767 22.384362 31.991303 41.310609 5.548826 0.856634 66.599435 6.428083 0.000000 0.000000 0.000000 
0.005935 0.736584 0.311850 -8.586580 51.872757 -3.129667 49.667229 -5.171256 -41.011686 -42.525093 7.001325 35.035352 29.109285 45.436041 24.068103 0.000000 0.000000 0.000000 -15.502660 -17.683559 -46.777608 -6.878077 -7.928279 69.527068 -1.541766 -2.717269 -2.174866 0.000000 0.000000 0.000000 -29.520569 -3.372266 53.308683 7.750485 -0.928503 -17.519542 4.852239 21.429415 22.920276 -3.564930 8.830960 -38.192373 0.000000 0.000000 0.000000 -25.959757 -31.880884 2.923046 -27.782115 -24.258599 4.060328 -27.723242 -52.673382 11.409764 0.000000 0.000000 0.000000 18.605826 27.836925 22.861408 32.963195 40.322385 5.268232 0.796050 65.088517 6.059367 0.000000 0.000000 0.000000 
0.017842 0.737872 0.303319 -8.227517 51.610490 -2.114139 49.303893 -5.053085 -41.310297 -43.411503 7.236493 34.749316 30.979952 47.132710 24.927225 0.000000 0.000000 0.000000 -16.527856 -18.113588 -46.393679 -5.587357 -8.332658 67.516945 -1.924465 -3.853995 -0.975393 0.000000 0.000000 0.000000 -28.474041 -3.444647 52.440371 7.839401 -0.926369 -17.660327 4.355622 20.211594 22.778024 -3.786111 8.784133 -37.987248 0.000000 0.000000 0.000000 -25.535279 -31.507962 3.022318 -28.426507 -26.185601 4.392552 -25.929126 -50.820396 10.149069 0.000000 0.000000 0.000000 18.747261 27.520267 22.693801 34.639331 40.516451 5.777493 2.916739 62.863001 7.025595 0.000000 0.000000 0.000000 
0.028635 0.737901 0.294532 -8.045384 51.561216 -1.589338 48.839385 -5.017329 -41.669447 -43.803122 7.354840 34.932928 32.116874 48.250111 25.252830 0.000000 0.000000 0.000000 -17.289599 -18.389242 -45.853495 -5.126485 -8.445264 66.471045 -2.010145 -4.198917 -0.194495 0.000000 0.000000 0.000000 -27.714078 -3.577561 52.057737 7.939048 -0.942337 -17.584573 4.169931 19.648772 22.594306 -3.992233 8.839518 -37.422080 0.000000 0.000000 0.000000 -26.401737 -31.571793 2.989093 -28.111321 -26.806919 4.550576 -24.464151 -48.974849 9.294851 0.000000 0.000000 0.000000 18.992385 27.672405 22.903116 35.511734 41.053778 6.179178 3.737435 61.404341 7.223653 0.000000 0.000000 0.000000 
